<?xml version="1.0" encoding="UTF-8"?>
<svg id="Vrstva_1" xmlns="http://www.w3.org/2000/svg" version="1.1" viewBox="0 0 100 100">
  <!-- Generator: Adobe Illustrator 29.5.1, SVG Export Plug-In . SVG Version: 2.1.0 Build 141)  -->
  <path d="M33.6,54.78l5.33-22.69c0-.41.14-.68.14-1.23,0-2.32-1.78-4.1-4.1-4.1-1.91,0-3.55,1.37-3.96,3.14,0,.14-.96,4.1-5.19,22l-.27,1.23c-.14.41-.14.68-.14.96,0,2.32,1.78,4.1,4.1,4.1,2.05,0,3.55-1.23,4.1-3.42h-.01ZM33.6,30.59c.14-.68.68-1.09,1.37-1.09.82,0,1.37.55,1.37,1.37,0,.14,0,.27-.14.68l-5.33,22.55c-.27,1.37-1.09,1.37-1.37,1.37-.82,0-1.37-.55-1.37-1.37v-.27l.27-1.09c5.06-21.59,5.19-22.14,5.19-22.14h.01Z" fill="#ffe99f"/>
  <rect x="50.83" y="37.05" width="2.73" height="40.04" transform="translate(-11.34 101.17) rotate(-82.32)" fill="#ffe99f"/>
  <rect x="54.78" y="18.89" width="2.73" height="39.91" transform="translate(.06 77.77) rotate(-69.44)" fill="#ffe99f"/>
  <path d="M78.7,60.25l2.6-11.75c0-.41.14-.68.14-1.23,0-2.32-1.78-4.1-4.1-4.1-1.91,0-3.55,1.37-3.96,3.14,0,.27-2.05,9.02-2.73,12.3-.14.41-.14.68-.14.96,0,2.32,1.78,4.1,4.1,4.1,2.05,0,3.55-1.23,4.1-3.42h0ZM75.97,46.99c.14-.68.68-1.09,1.37-1.09.82,0,1.37.55,1.37,1.37,0,.14,0,.27-.14.68l-2.6,11.62c-.27,1.37-1.09,1.37-1.37,1.37-.82,0-1.37-.55-1.37-1.37v-.27c2.6-11.62,2.73-12.3,2.73-12.3h0Z" fill="#ffe99f"/>
  <polygon points="39.75 88.27 33.6 88.27 33.6 85.53 38.38 85.53 50.27 68.31 52.46 69.95 39.75 88.27" fill="#ffe99f"/>
  <rect x="50" y="56.97" width="2.73" height="29.93" fill="#ffe99f"/>
  <polygon points="69.13 88.27 62.98 88.27 50.27 69.95 52.46 68.31 64.35 85.53 69.13 85.53 69.13 88.27" fill="#ffe99f"/>
  <rect x="47.27" y="85.53" width="8.2" height="2.73" fill="#ffe99f"/>
  <path d="M74.6,24.03c0-6.01-4.92-10.93-10.93-10.93s-10.93,4.92-10.93,10.93,4.92,10.93,10.93,10.93,10.93-4.92,10.93-10.93ZM71.87,24.03c0,4.51-3.69,8.2-8.2,8.2s-8.2-3.69-8.2-8.2,3.69-8.2,8.2-8.2,8.2,3.69,8.2,8.2Z" fill="#ffe99f"/>
  <path d="M30.87,74.6c-8.34,0-15.03-6.7-15.03-15.03,0-7.38,5.19-13.53,12.57-14.76l.41,2.73c-6.01.96-10.25,6.01-10.25,12.03,0,6.83,5.47,12.3,12.3,12.3s12.3-5.47,12.3-12.3c0-1.09-.14-2.19-.41-3.14l2.6-.68c.41,1.23.55,2.46.55,3.83,0,8.34-6.7,15.03-15.03,15.03h0Z" fill="#ffe99f"/>
  <path d="M88.27,36.33c0-3.01-2.46-5.47-5.47-5.47s-5.47,2.46-5.47,5.47,2.46,5.47,5.47,5.47,5.47-2.46,5.47-5.47ZM85.53,36.33c0,1.5-1.23,2.73-2.73,2.73s-2.73-1.23-2.73-2.73,1.23-2.73,2.73-2.73,2.73,1.23,2.73,2.73Z" fill="#ffe99f"/>
  <path d="M15.01,75.97c-1.09,0-1.91-.27-2.46-.96-.55-.55-.82-1.37-.82-2.32,0-2.32,1.91-5.19,5.06-9.57l2.19,1.64c-1.5,2.05-4.51,6.15-4.51,7.93,0,.27,0,.41.14.41,0,0,.14.14.55.14,2.73,0,9.84-3.96,17.49-11.34,2.19-2.05,5.06-5.33,6.7-7.24l2.05,1.78c-1.64,1.91-4.65,5.19-6.83,7.38-7.52,7.11-15.44,12.16-19.54,12.16h-.02,0Z" fill="#ffe99f"/>
  <rect x="78.7" y="65.03" width="2.73" height="6.83" fill="#ffe99f"/>
  <rect x="78.7" y="77.33" width="2.73" height="6.83" fill="#ffe99f"/>
  <rect x="82.8" y="73.23" width="6.83" height="2.73" fill="#ffe99f"/>
  <rect x="70.5" y="73.23" width="6.83" height="2.73" fill="#ffe99f"/>
  <rect x="18.57" y="11.73" width="2.73" height="6.83" fill="#ffe99f"/>
  <rect x="18.57" y="24.03" width="2.73" height="6.83" fill="#ffe99f"/>
  <rect x="22.67" y="19.93" width="6.83" height="2.73" fill="#ffe99f"/>
  <rect x="10.37" y="19.93" width="6.83" height="2.73" fill="#ffe99f"/>
  <rect x="47.92" y="53.37" width="3.96" height="2.73" transform="translate(-14.82 90.75) rotate(-76.74)" fill="#ffe99f"/>
  <rect x="50.09" y="47.24" width="2.46" height="2.73" transform="translate(-7.76 87.41) rotate(-76.74)" fill="#ffe99f"/>
  <rect x="49.83" y="39.83" width="6.56" height="2.73" transform="translate(.83 83.44) rotate(-76.74)" fill="#ffe99f"/>
  <rect x="63.86" y="51.55" width="2.6" height="2.73" transform="translate(-1.29 104.2) rotate(-76.74)" fill="#ffe99f"/>
  <rect x="63.88" y="44.44" width="5.6" height="2.73" transform="translate(6.8 100.2) rotate(-76.74)" fill="#ffe99f"/>
</svg>