<?xml version="1.0" encoding="UTF-8"?>
<svg id="Vrstva_1" xmlns="http://www.w3.org/2000/svg" version="1.1" viewBox="0 0 100 100">
  <!-- Generator: Adobe Illustrator 29.5.1, SVG Export Plug-In . SVG Version: 2.1.0 Build 141)  -->
  <path d="M46.58,30.73c-4.1,0-7.52-3.42-7.52-7.52,0-3.42,2.46-6.56,5.88-7.38l.55,2.73c-2.19.55-3.69,2.46-3.69,4.65,0,2.73,2.05,4.78,4.78,4.78.41,0,.82,0,1.09-.14l.55,2.73c-.27,0-.96.14-1.64.14h0Z" fill="#ffe99f"/>
  <rect x="42.07" y="64.21" width="9.16" height="2.73" transform="translate(-13.37 11.97) rotate(-12.8)" fill="#ffe99f"/>
  <rect x="17.61" y="28.01" width="3.69" height="2.73" transform="translate(-6.03 5.04) rotate(-12.81)" fill="#ffe99f"/>
  <rect x="24.31" y="24.99" width="16.67" height="2.73" transform="translate(-5.03 7.89) rotate(-12.8)" fill="#ffe99f"/>
  <path d="M32.37,75.97l-.55-2.73,24.19-5.47-9.02-36.9-28.7,6.56c-.55.14-1.09.14-1.64.14-4.1,0-7.52-3.42-7.52-7.52,0-3.55,2.46-6.56,5.88-7.38l30.07-6.83.55,2.73-30.07,6.83c-2.19.55-3.69,2.46-3.69,4.65,0,2.6,2.19,4.78,4.78,4.78.41,0,.68,0,1.09-.14l31.43-7.11,10.25,42.23-27.06,6.15h0Z" fill="#ffe99f"/>
  <path d="M26.22,77.2c-3.55,0-6.42-2.32-7.24-5.74L9.41,31.82l2.6-.68,9.57,39.63c.55,2.19,2.46,3.69,4.65,3.69.41,0,.82,0,1.09-.14l6.01-1.37.55,2.73-6.01,1.37c-.41,0-.96.14-1.64.14h-.01Z" fill="#ffe99f"/>
  <path d="M34.28,50.68c4.24-.96,7.93-3.01,9.43-5.33.82-1.23,1.09-2.46.82-3.55h0c-.68-3.55-6.29-5.33-12.85-3.96-4.24.96-7.93,3.01-9.43,5.33-.82,1.23-1.09,2.46-.82,3.55.68,2.87,4.1,4.51,8.61,4.51,1.37,0,2.87-.14,4.24-.55ZM41.8,42.62c.14.41,0,.82-.41,1.37-1.09,1.78-4.1,3.42-7.65,4.1-5.06,1.09-9.16-.14-9.57-1.91-.14-.41,0-.82.41-1.37,1.09-1.78,4.1-3.42,7.65-4.1,1.37-.27,2.6-.41,3.69-.41,3.28,0,5.74.96,5.88,2.32Z" fill="#ffe99f"/>
  <path d="M26.9,82.66h-.68c-3.55,0-6.83-1.37-9.43-3.96l1.91-1.91c1.91,2.05,4.51,3.14,7.38,3.14h.68l.14,2.73h0Z" fill="#ffe99f"/>
  <path d="M14.33,75.01c-.55-1.37-.96-2.73-1.09-4.24l2.73-.27c.14,1.09.41,2.32.82,3.28,0,0-2.46,1.23-2.46,1.23Z" fill="#ffe99f"/>
  <path d="M87.31,45.49c-2.6-.82-4.37-3.14-4.37-5.88,0-3.42,2.73-6.15,6.15-6.15.55,0,1.23.14,1.78.27l-.82,2.6c-2.32-.68-4.51,1.09-4.51,3.28,0,1.5.96,2.87,2.46,3.28l-.68,2.6h0Z" fill="#ffe99f"/>
  <rect x="51.59" y="32.8" width="8.61" height="2.73" transform="translate(7.7 78.54) rotate(-74.07)" fill="#ffe99f"/>
  <rect x="63.03" y="30.51" width="2.73" height="3.55" transform="translate(14.97 84.69) rotate(-73.3)" fill="#ffe99f"/>
  <rect x="75.5" y="28.14" width="2.73" height="15.72" transform="translate(20.32 99.3) rotate(-73.32)" fill="#ffe99f"/>
  <path d="M77.74,84.17l-26.65-7.93.82-2.6,23.92,7.24,10.25-35.67-26.1-7.79c-2.6-.82-4.37-3.14-4.37-5.88,0-3.42,2.73-6.15,6.15-6.15.55,0,1.23.14,1.78.27l27.33,8.2-.82,2.46-27.33-8.2c-.27-.14-.68-.14-.96-.14-1.91,0-3.42,1.5-3.42,3.42,0,1.5.96,2.87,2.46,3.28l28.56,8.61-11.62,40.86s0,.02,0,.02Z" fill="#ffe99f"/>
  <rect x="72.18" y="73.04" width="2.6" height="2.73" transform="translate(-18.23 124.66) rotate(-74.08)" fill="#ffe99f"/>
  <rect x="72.18" y="65.66" width="6.56" height="2.73" transform="translate(-9.7 121.19) rotate(-74.07)" fill="#ffe99f"/>
  <polygon points="88.4 25.26 85.67 25.26 85.67 28 88.4 28 88.4 25.26" fill="#ffe99f"/>
  <polygon points="82.94 23.9 80.2 23.9 80.2 26.63 82.94 26.63 82.94 23.9" fill="#ffe99f"/>
  <polygon points="77.47 22.53 74.74 22.53 74.74 25.26 77.47 25.26 77.47 22.53" fill="#ffe99f"/>
</svg>