<?xml version="1.0" encoding="UTF-8"?>
<svg id="Vrstva_1" xmlns="http://www.w3.org/2000/svg" version="1.1" viewBox="0 0 100 100">
  <!-- Generator: Adobe Illustrator 29.5.1, SVG Export Plug-In . SVG Version: 2.1.0 Build 141)  -->
  <rect x="32.23" y="85.53" width="2.73" height="2.73" fill="#ffe99f"/>
  <path d="M66.4,88.27h-28.7v-2.73h28.7c3.01,0,5.47-2.46,5.47-5.47H17.2c0,3.01,2.46,5.47,5.47,5.47h6.83v2.73h-6.83c-4.51,0-8.2-3.69-8.2-8.2v-2.73h60.14v2.73c0,4.51-3.69,8.2-8.2,8.2h-.01Z" fill="#ffe99f"/>
  <path d="M29.5,79.93c-8.47-4.37-13.67-12.98-13.67-22.55v-10.11c0-1.5,1.23-2.73,2.73-2.73h51.94c1.5,0,2.73,1.23,2.73,2.73v10.11c0,9.43-5.19,18.18-13.67,22.55l-1.23-2.46c7.52-3.96,12.16-11.62,12.16-20.09v-10.11H18.55v10.11c0,8.47,4.65,16.13,12.16,20.09l-1.23,2.46h.02Z" fill="#ffe99f"/>
  <path d="M67.08,73.23v-2.73c4.37,0,15.72-3.83,15.72-12.3,0-3.01-2.32-5.47-5.19-5.47-1.91,0-3.55,1.09-4.51,2.87l-2.46-1.23c1.37-2.6,4.1-4.24,6.97-4.24,4.37,0,7.93,3.69,7.93,8.2,0,10.52-13.12,14.9-18.45,14.9h0Z" fill="#ffe99f"/>
  <path d="M22.67,45.9h-2.73v-1.37c0-5.33,4.37-9.57,9.98-9.57,4.51,0,6.83,2.32,8.34,4.24l-2.19,1.64c-1.78-2.32-3.55-3.14-6.15-3.14-4.1,0-7.24,2.87-7.24,6.83v1.37s-.01,0-.01,0Z" fill="#ffe99f"/>
  <path d="M48.77,39.07c-.27-3.83-3.69-6.83-7.65-6.83-3.28,0-6.01,1.91-7.11,4.92l-2.6-.82c1.37-4.1,5.19-6.83,9.7-6.83,5.33,0,9.98,4.1,10.25,9.29l-2.6.27s0,0,.01,0Z" fill="#ffe99f"/>
  <path d="M69.27,45.9h-2.73c0-6.01-4.92-10.93-11.07-10.93-2.19,0-4.1.55-5.88,1.64l-1.5-2.32c2.19-1.37,4.65-2.05,7.24-2.05,7.79,0,13.94,6.15,13.94,13.67h0Z" fill="#ffe99f"/>
  <path d="M63.26,31.41l-1.37-2.32c.82-.41,1.64-1.37,1.64-2.32,0-1.5-1.23-2.73-2.73-2.73h-3.83c-3.96,0-7.11-3.28-7.11-7.11v-1.09h2.73v1.09c0,2.46,2.05,4.37,4.37,4.37h3.96c3.01,0,5.47,2.46,5.47,5.47,0,1.91-1.09,3.55-3.14,4.65h0Z" fill="#ffe99f"/>
  <path d="M36.33,18.57h-1.37v-2.73h1.37c1.5,0,2.73-1.23,2.73-2.73v-1.37h2.73v1.37c0,3.01-2.46,5.47-5.47,5.47h.01Z" fill="#ffe99f"/>
  <path d="M47.27,26.77h-2.73c0-1.5-1.23-2.73-2.73-2.73h-10.93c-2.32,0-4.1-1.78-4.1-4.1s1.78-4.1,4.1-4.1h1.37v2.73h-1.37c-.82,0-1.37.55-1.37,1.37s.55,1.37,1.37,1.37h10.93c3.01,0,5.47,2.46,5.47,5.47h0Z" fill="#ffe99f"/>
  <rect x="21.3" y="50" width="15.03" height="2.73" fill="#ffe99f"/>
  <rect x="39.07" y="50" width="2.73" height="2.73" fill="#ffe99f"/>
  <rect x="44.53" y="50" width="2.73" height="2.73" fill="#ffe99f"/>
  <polygon points="59.57 71.87 56.83 71.87 56.83 74.6 59.57 74.6 59.57 71.87" fill="#ffe99f"/>
  <polygon points="63.67 67.77 60.93 67.77 60.93 70.5 63.67 70.5 63.67 67.77" fill="#ffe99f"/>
  <polygon points="66.4 62.3 63.67 62.3 63.67 65.03 66.4 65.03 66.4 62.3" fill="#ffe99f"/>
  <polygon points="67.77 56.83 65.03 56.83 65.03 59.57 67.77 59.57 67.77 56.83" fill="#ffe99f"/>
</svg>