<?xml version="1.0" encoding="UTF-8"?>
<svg id="Vrstva_1" xmlns="http://www.w3.org/2000/svg" version="1.1" viewBox="0 0 100 100">
  <!-- Generator: Adobe Illustrator 29.5.1, SVG Export Plug-In . SVG Version: 2.1.0 Build 141)  -->
  <path d="M64.62,67.7l-1.91-1.91c6.7-6.56,15.99-10.39,25.56-10.39v-2.73c-8.88,0-17.49,2.87-24.19,8.2l-1.78-2.05c7.24-5.74,16.4-8.88,25.97-8.88,1.5,0,2.73,1.23,2.73,2.73v2.73c0,1.5-1.23,2.73-2.73,2.73-8.88,0-17.49,3.42-23.64,9.57h-.01Z" fill="#ffe99f"/>
  <path d="M65.03,67.7v-6.83c0-1.5-1.23-2.73-2.73-2.73H11.73c-1.5,0-2.73,1.23-2.73,2.73v6.83c0,4.51,3.69,8.2,8.2,8.2h39.63c4.51,0,8.2-3.69,8.2-8.2ZM62.3,60.87v6.83c0,3.01-2.46,5.47-5.47,5.47H17.2c-3.01,0-5.47-2.46-5.47-5.47v-6.83s50.57,0,50.57,0Z" fill="#ffe99f"/>
  <rect x="15.83" y="85.47" width="42.37" height="2.73" fill="#ffe99f"/>
  <rect x="66.4" y="85.47" width="21.87" height="2.73" fill="#ffe99f"/>
  <rect x="60.93" y="85.47" width="2.73" height="2.73" fill="#ffe99f"/>
  <rect x="10.37" y="85.47" width="2.73" height="2.73" fill="#ffe99f"/>
  <path d="M41.8,86.83h-2.73v-.68c0-2.87-1.23-4.78-2.05-4.78s-2.05,1.91-2.05,4.78v.68h-2.73v-.68c0-4.24,2.05-7.52,4.78-7.52s4.78,3.28,4.78,7.52v.68Z" fill="#ffe99f"/>
  <path d="M29.5,86.83h-2.73v-.68c0-2.87-1.23-4.78-2.05-4.78s-2.05,1.91-2.05,4.78v.68h-2.73v-.68c0-4.24,2.05-7.52,4.78-7.52s4.78,3.28,4.78,7.52c0,0,0,.68,0,.68Z" fill="#ffe99f"/>
  <path d="M54.1,86.83h-2.73v-.68c0-2.87-1.23-4.78-2.05-4.78s-2.05,1.91-2.05,4.78v.68h-2.73v-.68c0-4.24,2.05-7.52,4.78-7.52s4.78,3.28,4.78,7.52v.68Z" fill="#ffe99f"/>
  <rect x="17.2" y="63.6" width="16.4" height="2.73" fill="#ffe99f"/>
  <rect x="36.33" y="63.6" width="4.1" height="2.73" fill="#ffe99f"/>
  <path d="M40.84,42l14.76-15.03c.82-.82,1.23-1.78,1.23-2.87,0-1.23-.55-2.46-1.64-3.28l-10.93-8.2c-.68-.55-1.5-.82-2.46-.82-1.5,0-2.87.82-3.55,2.05l-10.39,18.45c-.68,1.23-1.09,2.6-1.09,3.96,0,4.51,3.69,8.2,8.2,8.2,2.19,0,4.37-.82,5.88-2.46,0,0,0,0-.01,0ZM42.76,14.67l10.93,8.2c.41.27.55.68.55,1.09s-.14.68-.41.96l-14.9,15.17c-1.09,1.09-2.46,1.64-3.96,1.64-3.01,0-5.47-2.46-5.47-5.47,0-.96.27-1.91.68-2.73l10.39-18.45c.27-.41.68-.68,1.23-.68.27,0,.55.14.96.27Z" fill="#ffe99f"/>
  <rect x="33.3" y="27.74" width="2.73" height="9.7" transform="translate(-12.2 40.77) rotate(-53.13)" fill="#ffe99f"/>
  <polygon points="28.13 52.67 25.4 52.67 25.4 55.4 28.13 55.4 28.13 52.67" fill="#ffe99f"/>
  <polygon points="28.13 44.46 25.4 44.46 25.4 47.2 28.13 47.2 28.13 44.46" fill="#ffe99f"/>
  <polygon points="33.6 48.56 30.87 48.56 30.87 51.3 33.6 51.3 33.6 48.56" fill="#ffe99f"/>
  <path d="M25.4,32.16h-2.73v-.68c0-1.09-.96-2.05-2.05-2.05h-6.83c-2.6,0-4.78-2.19-4.78-4.78s2.19-4.78,4.78-4.78h2.73c1.09,0,2.05-.96,2.05-2.05v-.68h2.73v.68c0,2.6-2.19,4.78-4.78,4.78h-2.73c-1.09,0-2.05.96-2.05,2.05s.96,2.05,2.05,2.05h6.83c2.6,0,4.78,2.19,4.78,4.78v.68Z" fill="#ffe99f"/>
  <path d="M65.72,49.93h-4.78v-2.73h4.78c1.09,0,2.05-.96,2.05-2.05s-.96-2.05-2.05-2.05h-4.1c-2.6,0-4.78-2.19-4.78-4.78v-4.78h2.73v4.78c0,1.09.96,2.05,2.05,2.05h4.1c2.6,0,4.78,2.19,4.78,4.78s-2.19,4.78-4.78,4.78Z" fill="#ffe99f"/>
  <path d="M50,55.4h-2.73v-3.42c0-2.6,2.19-4.78,4.78-4.78h6.15v2.73h-6.15c-1.09,0-2.05.96-2.05,2.05v3.42Z" fill="#ffe99f"/>
</svg>