<?xml version="1.0" encoding="UTF-8"?>
<svg id="Vrstva_1" xmlns="http://www.w3.org/2000/svg" version="1.1" viewBox="0 0 100 100">
  <!-- Generator: Adobe Illustrator 29.5.1, SVG Export Plug-In . SVG Version: 2.1.0 Build 141)  -->
  <path d="M77.47,78.7h-.55c-2.19-.41-3.83-2.32-4.1-4.51v-.55l-4.78-1.09.55-2.73,6.83,1.5.27,2.6c.14,1.09.82,1.91,1.91,2.05l1.09-5.33c.14-.41,0-.68-.14-1.09-.14-.27-.55-.55-.82-.55l-5.06-1.09.55-2.73,5.06,1.09c2.19.41,3.69,2.6,3.14,4.92l-1.09,5.33c-.41,1.37-1.5,2.19-2.87,2.19h0Z" fill="#ffe99f"/>
  <path d="M64.9,91c-.41,0-.96-.14-1.37-.41-1.64-.96-2.73-2.6-2.73-4.37,0-.82.27-1.91.68-3.14,0-.09.05-.18.14-.27l-2.46-4.65,2.46-1.23,3.01,5.6-.14.27c0,.14-.14.55-.27.96-.14.68-.55,1.91-.55,2.46,0,.82.55,1.64,1.37,2.05l2.6-4.65c.27-.41.27-.82,0-1.23s-3.96-7.52-3.96-7.52l2.46-1.23s3.83,7.11,3.96,7.52c.68,1.23.68,2.73,0,3.96l-2.73,4.51c-.55.82-1.5,1.37-2.46,1.37h-.01Z" fill="#ffe99f"/>
  <path d="M70.23,33.05l2.73-1.37c1.91-.96,3.01-2.87,3.01-4.92,0-3.01-2.46-5.47-5.47-5.47-.82,0-1.64.14-2.46.55l-2.73,1.37c-1.91.96-3.01,2.87-3.01,4.92,0,3.01,2.46,5.47,5.47,5.47.82,0,1.64-.14,2.46-.55ZM73.23,26.77c0,1.09-.55,2.05-1.5,2.46l-2.73,1.37c-.41.14-.82.27-1.23.27-1.5,0-2.73-1.23-2.73-2.73,0-1.09.55-2.05,1.5-2.46l2.73-1.37c.41-.14.82-.27,1.23-.27,1.5,0,2.73,1.23,2.73,2.73Z" fill="#ffe99f"/>
  <path d="M50,36.88l5.06,3.14,1.5-2.32-6.15-3.83c-.41-.14-.68-.27-1.09-.27-1.09,0-2.05.96-2.05,2.05v17.08h2.73v-15.85ZM48.91,36.2h0Z" fill="#ffe99f"/>
  <path d="M55.47,91h-6.83c-2.32,0-4.1-1.78-4.1-4.1v-5.6h2.73v5.6c0,.82.55,1.37,1.37,1.37h6.83c0-1.09-.68-1.91-1.64-2.32l-2.46-.82v-4.24h2.73v2.32l.55.14c2.05.68,3.55,2.73,3.55,4.92,0,1.5-1.23,2.73-2.73,2.73Z" fill="#ffe99f"/>
  <path d="M33.05,91c-.55,0-1.09-.14-1.5-.41l-5.74-3.69c-1.91-1.23-2.46-3.83-1.23-5.74l11.75-17.9v-27.2c0-.96-.55-1.78-1.5-2.19l-12.57-5.06c-1.37-.55-2.32-2.05-2.32-3.55,0-2.19,1.78-3.96,3.96-3.96.41,0,.96.14,1.37.27l13.12,4.78c.82.27,1.5.41,2.32.41h6.42c1.5,0,2.87.41,4.1,1.23l11.48,7.24-1.5,2.32-11.48-7.24c-.82-.55-1.78-.82-2.73-.82h-6.42c-1.09,0-2.19-.14-3.28-.55l-13.12-4.78c-.68-.27-1.64.27-1.64,1.09,0,.55.27.96.68,1.09l12.57,5.06c1.91.82,3.14,2.6,3.14,4.65v28.02l-12.03,18.45c-.41.68-.27,1.5.41,1.91l5.74,3.69c.27-.55.55-.96.55-1.37s-.27-.96-.68-1.5l-1.64-2.05,4.51-6.97,2.32,1.5-3.42,5.33.41.41c.82.96,1.23,2.05,1.23,3.14,0,.96-.27,1.91-.96,2.87-.41.55-.96,1.09-1.78,1.23-.14.27-.27.27-.55.27v.02h0Z" fill="#ffe99f"/>
  <path d="M50,17.88v-2.73c0-3.42-2.73-6.15-6.15-6.15s-6.15,2.73-6.15,6.15v2.73c0,3.42,2.73,6.15,6.15,6.15s6.15-2.73,6.15-6.15ZM47.27,15.15v2.73c0,1.91-1.5,3.42-3.42,3.42s-3.42-1.5-3.42-3.42v-2.73c0-1.91,1.5-3.42,3.42-3.42s3.42,1.5,3.42,3.42Z" fill="#ffe99f"/>
  <rect x="15.83" y="48.63" width="5.47" height="2.73" fill="#ffe99f"/>
  <rect x="18.29" y="60.94" width="6.01" height="2.73" transform="translate(-37.82 33.31) rotate(-45)" fill="#ffe99f"/>
  <rect x="19.93" y="34.69" width="2.73" height="6.01" transform="translate(-20.42 26.1) rotate(-45)" fill="#ffe99f"/>
  <path d="M76.79,63.94c.41-.41.55-1.09.55-1.64,0-1.5-1.23-2.73-2.73-2.73-6.15,0-9.57-6.56-9.57-12.85v-2.19l.27-1.37-.27,1.37,6.56,1.23c.55.14,1.23.14,1.78,0l7.79-1.91c1.78-.41,3.01-1.91,3.01-3.69,0-2.05-1.64-3.83-3.83-3.83h-.68l-6.83,1.23-5.6-2.05c-.96-.41-1.91-.55-3.01-.55h-1.5c-8.75,0-11.62,7.38-15.17,16.81-2.6,6.97-5.74,14.9-11.89,22.41-.41.55-.68,1.09-.68,1.78s.27,1.37.82,1.91c.14.27,4.92,4.92,12.85,4.92,13.53,0,27.61-18.04,28.15-18.86h-.02ZM62.71,37.7l1.37-.14c.68,0,1.37.14,2.05.41l6.29,2.32,7.52-1.37c.68-.14,1.37.41,1.37,1.09,0,.55-.27.96-.82,1.09l-7.79,1.91h-.55l-6.56-1.23h-.55c-1.5,0-2.73,1.23-2.73,2.73v2.19c0,7.52,4.37,15.58,12.3,15.58-.55.68-13.8,17.77-25.97,17.77-6.7,0-10.8-3.96-10.93-4.1,6.56-7.79,9.84-16.4,12.44-23.23,3.83-9.84,6.01-15.03,12.57-15.03h0Z" fill="#ffe99f"/>
  <path d="M56.97,50c-.14-.82-.14-1.78-.14-2.6h2.73c0,.82.14,1.64.14,2.32l-2.73.27h0Z" fill="#ffe99f"/>
  <path d="M66.67,65.72c-4.37-2.46-7.65-6.83-9.02-12.44l2.6-.68c1.23,4.78,3.96,8.61,7.79,10.66,0,0-1.37,2.46-1.37,2.46Z" fill="#ffe99f"/>
</svg>