<?xml version="1.0" encoding="UTF-8"?>
<svg id="Vrstva_1" xmlns="http://www.w3.org/2000/svg" version="1.1" viewBox="0 0 100 100">
  <!-- Generator: Adobe Illustrator 29.5.1, SVG Export Plug-In . SVG Version: 2.1.0 Build 141)  -->
  <rect x="46.49" y="85.14" width="33.07" height="2.76" fill="#ffe99f"/>
  <rect x="82.31" y="85.14" width="4.13" height="2.76" fill="#ffe99f"/>
  <rect x="71.29" y="79.62" width="15.16" height="2.76" fill="#ffe99f"/>
  <rect x="64.4" y="79.62" width="4.13" height="2.76" fill="#ffe99f"/>
  <rect x="26.51" y="61.01" width="2.76" height="24.8" transform="translate(-43.74 41.22) rotate(-45)" fill="#ffe99f"/>
  <rect x="18.9" y="75.18" width="2.76" height="11.44" transform="translate(-51.27 38.03) rotate(-45)" fill="#ffe99f"/>
  <rect x="31.33" y="12.11" width="2.76" height="6.89" fill="#ffe99f"/>
  <rect x="31.33" y="24.51" width="2.76" height="6.89" fill="#ffe99f"/>
  <rect x="23.06" y="20.38" width="6.89" height="2.76" fill="#ffe99f"/>
  <rect x="35.46" y="20.38" width="6.89" height="2.76" fill="#ffe99f"/>
  <path d="M17.96,87.89l17.5-3.72c1.38-.28,2.48-.96,3.44-1.93l46.3-46.3c.83-.83,1.38-2.07,1.38-3.31s-.55-2.48-1.38-3.31l-13.23-13.23c-1.79-1.79-4.82-1.79-6.61,0L19.2,62.26c-.96.96-1.65,2.2-1.93,3.44l-3.72,17.5c-.14.28-.14.55-.14.83,0,2.07,1.79,3.86,3.86,3.86,0,0,.69,0,.69,0ZM70.05,18.31l13.23,13.23c.41.41.55.83.55,1.38s-.14.96-.55,1.38l-46.16,46.16c-.55.55-1.24.96-2.07,1.1l-17.5,3.72c-.69.14-1.38-.41-1.38-1.1v-.28l3.72-17.5c.14-.83.55-1.52,1.1-2.07l46.16-46.16c.41-.28.83-.55,1.38-.55s.96.14,1.52.69Z" fill="#ffe99f"/>
  <rect x="51.45" y="34.89" width="7.99" height="2.76" transform="translate(-9.41 49.83) rotate(-45)" fill="#ffe99f"/>
  <rect x="46.5" y="41.78" width="4.13" height="2.76" transform="translate(-16.29 46.98) rotate(-45)" fill="#ffe99f"/>
  <rect x="66.86" y="19" width="2.76" height="18.74" transform="translate(-.07 56.56) rotate(-45)" fill="#ffe99f"/>
</svg>