<?xml version="1.0" encoding="UTF-8"?>
<svg id="Logo" xmlns="http://www.w3.org/2000/svg" version="1.1" viewBox="0 0 262.32 78.81">
  <!-- Generator: Adobe Illustrator 29.5.1, SVG Export Plug-In . SVG Version: 2.1.0 Build 141)  -->
  <g id="Podpis">
    <path d="M75.92,34.48c-2-.6-4.1-.6-6.2-.6-8.3,0-16.5,1.6-24.8,2.4-2.4.2-3.9-.3-4.3-2.8-.3-1.9-.4-3.8-.6-5.6-.8-4.6-1.8-9.3-2.4-13.9-.8-5.5-.7-5.5-6.2-5.4-.8,0-11.4.6-11.5,1.4,0,1.6,10.6.3,11.3.3,2.9,0,4.1,1.5,4.5,4.4.8,5.5,1.9,10.9,2.8,16.4v5.9c-3.6,2-7.7,1.8-11.5,3-1.7,0-3.4.2-5.1,1h-.4c-2.7.4-5.5.9-8,1.9-3.7.4-7.1,1.7-10.2,3.6-1.8,1.1-3.5,2.4-3.3,4.9.3.9.4,2,1,2.8,3.9,5,9.4,8.2,14.5,11.8,2.8,2.1,5.9,3.9,9.1,5.4,2.2,1.2,4.4,2.2,6.9,2.7,6.3,2.8,12.9,4.2,19.8,4.7,3.5.3,4.7-1.5,3.6-4.9-.3-.9-.8-1.6-1.2-2.4-1.6-4.4-4-8.5-5.4-13-1.2-3.9-2.7-7.6-4.1-11.4-.2-.7-.3-1.4-.5-2.1,0-1.8-.3-3.7-.4-5.5,6.5-1.8,13.1-2.7,19.9-3,4.2-.2,8.5,0,12.7,0s1.5,0,1.5-.9-.7-.9-1.2-1h-.3s0-.1,0-.1ZM51.52,71.48c1.3,4.7,2.1,4.6-3.7,4.4-5.1-.2-9.9-1.7-14.9-2.9-2.4-1-4.9-2-7.3-3.1-2.8-1.7-6-2.8-8.6-4.9-4.8-2.8-9.3-6.1-13.2-10-1.2-1.2-2.4-2.6-2.3-4.5,3.3-4.6,8.9-4.5,13.5-6.5,3-.6,6-1.3,9.1-1.9,5.2-.3,10.2-2.1,15.4-2.1,1.1,3.2,2.3,6.4,3.4,9.6,2.4,7.5,4.9,15,8.6,22h0s0-.1,0-.1Z" fill="gray" fill-rule="evenodd"/>
    <path d="M137.42,38.48c-12.1,1.5-24.1.5-36-.9-2.4-.3-4.8-.5-7.2-.8-.6,0-1.6,0-1.6-.8s1-.8,1.6-.7c5.5.4,10.9.8,16.4,1.3,8.5.7,16.9.8,25.4,0,7.1-.6,7.3-1.2,3.4-7.2-4.7-4.6-10.1-8.3-15.5-12-3.8-2.3-7.4-4.8-11.4-6.6-5.7-2.8-11.4-5.6-17.5-7.4-1.5-.3-3.1-.7-4.6-.9-5.7-.9-8.1,1.4-8.3,8-.2,4.8,0,9.6,0,14.4.2,1.7.3,3.3.5,5,1.3,6.7,2.2,13.6,5.9,19.6.4.6.9,1.5,0,2-1,.6-1.7-.4-2.1-1.1-2.8-4.5-4.1-9.6-5.1-14.7-.4-2-1.5-4.1-.7-6.3-.5-5.6-.7-11.3-.5-17,.2-3.8,1.3-7.4,3.2-10.6.8-1.4,2-2,3.5-1.7,3.3.7,6.6.9,9.7,2.3,5.9,1.5,11.2,4.2,16.5,7,4.5,1.7,8.4,4.5,12.5,7,4.6,2.7,9,5.6,12.9,9.2,1,1,2.2,1.8,2.7,3.2,3.8,5.3,6.5,8.4-3.6,9.7h-.1,0Z" fill="gray" fill-rule="evenodd"/>
    <path d="M179.92,21.68c0,.8-.4,1.3-1.1,1.1-1.3-.3-2.2-1.2-2.3-2.6,0-.6.3-1.2,1.1-1,1.4.3,2.1,1.3,2.3,2.5h0Z" fill="gray" fill-rule="evenodd"/>
    <path d="M57.52,48.28c0,.8-.4,1.3-1.1,1.1-1.3-.3-2.2-1.2-2.3-2.6,0-.6.3-1.2,1-1,1.4.3,2.1,1.3,2.3,2.5h.1Z" fill="gray" fill-rule="evenodd"/>
    <path d="M258.82,28.88c-.5-1.4-1.7-2.2-2.7-3.2-3.9-3.6-8.3-6.6-12.9-9.2-4-2.5-8-5.3-12.5-7-5.3-2.8-10.6-5.5-16.5-7-3.1-1.5-6.4-1.7-9.7-2.3-1.6-.3-2.7.3-3.5,1.7-1.9,3.3-2.8,6.9-3.2,10.6-.8,7.3.7,21.2,1.1,23.2.2,1,.6,2.1.5,2.8,0,.6-.5.8-1.6.6-2.8-.5-5.6-.9-8.4-1.3-3.8-.3-7.3,1.6-11,2.1-3.1-.3-6-1.1-8-3.8-.9-1.1-1.8-1-2.6,0-1.3.3-2.6.7-3.8,1-.3-1.2-.5-2.4-.9-3.6-.7-1.9-1.8-3.5-4.1-3.3-2.4.2-3.9,1.8-4.4,4.1-.6,2.8,1.1,4.3,3.3,5.4,3.6,1.4,6.8,0,10-1.2,2.8-.3,4.5,2.1,6.9,2.7,1.1.6,2.4.7,3.6.5,3.5-.7,9.9-2.5,10.5-2.5s1.4.3,2.2.5c4,.9,8,1.6,9.4,3,.8.9,2.1,5,3.6,7.4.5.7,1.1,1.7,2.1,1.1.9-.5.3-1.4,0-2-3.7-6-4.6-12.9-5.9-19.6-.2-1.7-.3-3.3-.5-5v-14.4c.2-6.6,2.7-8.8,8.3-8,1.6.2,3.1.6,4.6.9,6.2,1.8,11.8,4.6,17.5,7.4,4.1,1.7,7.7,4.3,11.4,6.6,5.5,3.6,10.8,7.4,15.5,12,3.8,6,3.6,6.6-3.4,7.2-8.5.8-16.9.7-25.4,0-5.5-.5-10.9-.9-16.4-1.3-.6,0-1.6-.2-1.6.7s1,.7,1.6.8c2.4.3,4.8.5,7.2.8,12,1.4,23.9,2.4,36,.9,10.1-1.3,7.4-4.4,3.6-9.7h0v.3l.1.1h0ZM157.02,36.78c-.6-1.9-1-3.8,1.6-4.3,2.5-.5,3,1.5,3.3,3.4.1.6,0,1.3,0,2-1.9,1-3.5,0-4.9-1h0v-.1h0Z" fill="gray" fill-rule="evenodd"/>
  </g>
  <g>
    <path d="M81.02,71.68c0,1,0,1.9-.3,2.8-.2.9-.5,1.6-1,2.2s-1.2,1.1-2,1.5c-.8.3-1.8.5-3.1.5s-1.4,0-2-.2c-.6,0-1.1-.3-1.6-.5s-.9-.4-1.2-.6-.5-.4-.7-.5l1-1.7c.2.2.4.3.7.5.3.2.6.4.9.5s.8.3,1.2.4c.4,0,.9.2,1.5.2,1.6,0,2.7-.4,3.4-1.2.7-.8,1.1-2.2,1.1-4.2v-14.1h2.1v14.3h0v.1h0Z" fill="#b29f5d"/>
    <path d="M100.92,78.28c-.4-1-.8-2-1.1-3-.3-.9-.7-1.9-1-2.8h-10.2c-.3.9-.7,1.8-1,2.8s-.7,1.9-1.1,3h-2.1c.8-2.2,1.5-4.2,2.3-6.1s1.4-3.7,2.1-5.3c.7-1.7,1.4-3.3,2-4.8.7-1.5,1.4-3.1,2.1-4.6h1.8c.7,1.6,1.4,3.1,2.1,4.6s1.3,3.2,2,4.8,1.4,3.5,2.1,5.3c.7,1.9,1.5,3.9,2.3,6.1h-2.3ZM93.72,59.68c-.8,1.7-1.5,3.5-2.2,5.3s-1.5,3.7-2.2,5.8h8.9c-.8-2.1-1.5-4-2.3-5.8-.7-1.8-1.5-3.5-2.2-5.3h0Z" fill="#b29f5d"/>
    <path d="M120.22,78.28c-.7-1-1.5-2.1-2.3-3.1-.9-1-1.7-2-2.7-2.9-.9-.9-1.9-1.7-2.9-2.5s-1.9-1.4-2.8-1.9v10.4h-2.1v-20.9h2.1v9.7c.8-.7,1.6-1.5,2.6-2.4s1.9-1.8,2.8-2.7,1.8-1.8,2.6-2.6c.8-.8,1.5-1.5,1.9-2.1h2.5c-.6.6-1.3,1.4-2.1,2.2-.8.9-1.7,1.7-2.6,2.6s-1.9,1.8-2.8,2.7c-.9.9-1.7,1.6-2.5,2.3.6.4,1.2.8,1.9,1.3s1.4,1.1,2.1,1.7,1.4,1.3,2.1,2,1.3,1.4,1.9,2.1,1.1,1.4,1.6,2.1.9,1.3,1.2,1.9h-2.5s0,.1,0,.1Z" fill="#b29f5d"/>
    <path d="M134.02,78.78c-1.4,0-2.6-.2-3.5-.6-1-.4-1.8-1-2.4-1.7s-1-1.6-1.3-2.6-.4-2.1-.4-3.2v-13.2h2.1v12.9c0,1.2.1,2.1.4,3s.6,1.5,1.1,2.1,1.1.9,1.7,1.2,1.5.4,2.3.4,1.6,0,2.3-.4,1.3-.7,1.7-1.2.9-1.2,1.1-2.1c.3-.8.4-1.8.4-3v-12.9h2.1v13.2c0,1.2-.1,2.2-.4,3.2s-.7,1.9-1.3,2.6c-.6.8-1.4,1.3-2.4,1.7s-2.1.6-3.5.6h0Z" fill="#b29f5d"/>
    <path d="M153.02,78.48h-2.6c-.5,0-.9,0-1.3-.2s-.8,0-1.1-.2v-20.1c.4,0,.8-.2,1.2-.3s.9,0,1.4-.2h2.7c1.1,0,2.2,0,3.2.3,1,.2,1.9.5,2.7.9s1.4,1,1.8,1.7c.5.7.7,1.6.7,2.6s-.3,2.1-.9,2.9c-.6.8-1.3,1.3-2.3,1.6.6,0,1.2.3,1.7.6s.9.6,1.3,1,.7.9.9,1.5.3,1.3.3,2.1c0,2-.8,3.5-2.4,4.5s-4,1.6-7.3,1.6h0v-.3h0ZM150.12,66.48h4c.8,0,1.5,0,2.1-.2s1.2-.3,1.7-.6c.5-.3.9-.7,1.2-1.2s.4-1.1.4-1.9-.2-1.3-.5-1.7c-.3-.5-.7-.9-1.3-1.2s-1.2-.5-2-.6-1.6-.2-2.5-.2h-1.9c-.5,0-.9,0-1.3.2v7.3h.1s0,.1,0,.1ZM150.12,68.28v8.3h3.2c.9,0,1.8,0,2.7-.2.9,0,1.6-.3,2.3-.7s1.2-.8,1.6-1.3c.4-.6.6-1.3.6-2.2s-.1-1.5-.4-2-.7-1-1.2-1.3-1.2-.5-1.9-.6-1.6-.2-2.5-.2h-4.4v.2h0Z" fill="#b29f5d"/>
    <path d="M193.52,67.78c0,1.8-.3,3.4-.8,4.7s-1.4,2.4-2.4,3.3-2.2,1.6-3.6,2c-1.4.4-3,.7-4.6.7h-2.7c-.9,0-1.7-.2-2.4-.4v-20.2c.7-.2,1.5-.3,2.4-.4s1.8,0,2.7,0c1.7,0,3.2.2,4.6.7s2.6,1.1,3.6,2,1.8,2,2.4,3.3c.6,1.3.8,2.9.8,4.6h0s0-.3,0-.3ZM179.02,76.48h3.3c1.1,0,2.8-.2,3.9-.6s2.1-1,2.8-1.8,1.3-1.7,1.7-2.8.6-2.3.6-3.7-.2-2.6-.6-3.7c-.4-1.1-1-2-1.7-2.8s-1.7-1.3-2.8-1.8c-1.1-.4-2.4-.6-3.9-.6h-3.3v17.3h0v.5Z" fill="#b29f5d"/>
    <path d="M212.42,78.28c-.4-1-.8-2-1.1-3-.3-.9-.7-1.9-1-2.8h-10.2c-.3.9-.7,1.8-1,2.8s-.7,1.9-1.1,3h-2.1c.8-2.2,1.5-4.2,2.3-6.1s1.4-3.7,2.1-5.3c.7-1.7,1.4-3.3,2-4.8.7-1.5,1.4-3.1,2.1-4.6h1.8c.7,1.6,1.4,3.1,2.1,4.6s1.3,3.2,2,4.8,1.4,3.5,2.1,5.3c.7,1.9,1.5,3.9,2.3,6.1h-2.3ZM205.22,59.68c-.8,1.7-1.5,3.5-2.2,5.3s-1.5,3.7-2.2,5.8h8.9c-.8-2.1-1.5-4-2.3-5.8-.7-1.8-1.5-3.5-2.2-5.3h0Z" fill="#b29f5d"/>
    <path d="M216.92,57.38c.6,1.8,1.2,3.5,1.7,5.1.5,1.6,1.1,3.1,1.7,4.6s1.1,3,1.7,4.4,1.2,2.9,1.8,4.4c.6-1.5,1.2-2.9,1.8-4.3s1.1-2.9,1.7-4.4c.6-1.5,1.1-3.1,1.7-4.7s1.1-3.3,1.7-5.1h2.2c-.9,2.6-1.8,5-2.5,7-.7,2-1.4,3.8-2.1,5.4-.6,1.6-1.2,3.1-1.8,4.5s-1.2,2.7-1.8,4.1h-1.9c-.6-1.4-1.2-2.8-1.8-4.1-.6-1.4-1.2-2.8-1.8-4.4s-1.3-3.4-2.1-5.4c-.7-2-1.6-4.3-2.5-6.9h2.3v-.2h0Z" fill="#b29f5d"/>
    <path d="M237.22,57.38h2.1v20.9h-2.1s0-20.9,0-20.9Z" fill="#b29f5d"/>
    <path d="M262.32,67.78c0,1.8-.3,3.4-.8,4.7s-1.4,2.4-2.4,3.3-2.2,1.6-3.6,2-3,.7-4.6.7h-2.7c-.9,0-1.7-.2-2.4-.4v-20.2c.7-.2,1.5-.3,2.4-.4s1.8,0,2.7,0c1.7,0,3.2.2,4.6.7,1.4.5,2.6,1.1,3.6,2s1.8,2,2.4,3.3.8,2.9.8,4.6h0s0-.3,0-.3ZM247.72,76.48h3.3c1.1,0,2.8-.2,3.9-.6s2.1-1,2.8-1.8,1.3-1.7,1.7-2.8.6-2.3.6-3.7-.2-2.6-.6-3.7-1-2-1.7-2.8-1.7-1.3-2.8-1.8c-1.1-.4-2.4-.6-3.9-.6h-3.3v17.3h0v.5Z" fill="#b29f5d"/>
  </g>
</svg>