<?xml version="1.0" encoding="UTF-8"?>
<svg id="Vrstva_1" xmlns="http://www.w3.org/2000/svg" version="1.1" viewBox="0 0 100 100">
  <!-- Generator: Adobe Illustrator 29.5.1, SVG Export Plug-In . SVG Version: 2.1.0 Build 141)  -->
  <path d="M39.04,74.65c0-6.85-5.48-12.33-12.33-12.33s-12.33,5.48-12.33,12.33,5.48,12.33,12.33,12.33,12.33-5.48,12.33-12.33ZM36.3,74.65c0,5.34-4.25,9.59-9.59,9.59s-9.59-4.25-9.59-9.59,4.25-9.59,9.59-9.59,9.59,4.25,9.59,9.59Z" fill="#ffe99f"/>
  <path d="M81.5,66.44c0-6.85-5.48-12.33-12.33-12.33s-12.33,5.48-12.33,12.33,5.48,12.33,12.33,12.33,12.33-5.48,12.33-12.33ZM78.76,66.44c0,5.34-4.25,9.59-9.59,9.59s-9.59-4.25-9.59-9.59,4.25-9.59,9.59-9.59,9.59,4.25,9.59,9.59Z" fill="#ffe99f"/>
  <polygon points="39.04 74.65 36.3 74.65 36.3 27.81 81.5 13.02 81.5 66.44 78.76 66.44 78.76 16.85 39.04 29.73 39.04 74.65" fill="#ffe99f"/>
  <rect x="19.87" y="14.39" width="2.74" height="6.85" fill="#ffe99f"/>
  <rect x="19.87" y="26.72" width="2.74" height="6.85" fill="#ffe99f"/>
  <rect x="23.98" y="22.61" width="6.85" height="2.74" fill="#ffe99f"/>
  <rect x="11.65" y="22.61" width="6.85" height="2.74" fill="#ffe99f"/>
  <path d="M22.61,74.65h-2.74c0-3.84,3.01-6.85,6.85-6.85v2.74c-2.33,0-4.11,1.78-4.11,4.11Z" fill="#ffe99f"/>
  <path d="M65.07,66.44h-2.74c0-3.84,3.01-6.85,6.85-6.85v2.74c-2.33,0-4.11,1.78-4.11,4.11Z" fill="#ffe99f"/>
  <rect x="36.71" y="36.44" width="39.72" height="2.74" transform="translate(-8.82 19.01) rotate(-17.72)" fill="#ffe99f"/>
  <polygon points="88.35 52.74 85.61 52.74 85.61 55.48 88.35 55.48 88.35 52.74" fill="#ffe99f"/>
  <polygon points="88.35 58.22 85.61 58.22 85.61 60.96 88.35 60.96 88.35 58.22" fill="#ffe99f"/>
  <polygon points="88.35 63.7 85.61 63.7 85.61 66.44 88.35 66.44 88.35 63.7" fill="#ffe99f"/>
  <rect x="30.82" y="55.48" width="2.74" height="4.11" fill="#ffe99f"/>
  <rect x="30.82" y="39.04" width="2.74" height="13.7" fill="#ffe99f"/>
</svg>