<?xml version="1.0" encoding="UTF-8"?>
<svg id="Vrstva_1" xmlns="http://www.w3.org/2000/svg" version="1.1" viewBox="0 0 100 100">
  <!-- Generator: Adobe Illustrator 29.5.1, SVG Export Plug-In . SVG Version: 2.1.0 Build 141)  -->
  <path d="M68.07,65.24c-4.1,0-9.02-.55-11.07-1.91-.68-.41-.82-1.23-.41-1.91s1.23-.82,1.91-.41c1.09.82,5.19,1.5,9.98,1.5h0v2.73s-.41,0-.41,0Z" fill="#ffe99f"/>
  <path d="M39.1,65.24h-.41v-2.73h.41c4.65,0,8.47-.68,9.57-1.5.68-.41,1.5-.27,1.91.41s.27,1.5-.41,1.91c-2.05,1.37-6.97,1.91-11.07,1.91Z" fill="#ffe99f"/>
  <path d="M56.87,40.36h-6.7c-.41-.41-1.37-.55-1.37-1.37v-4.1h2.73v2.73h3.96V13.03h-3.96v13.53h-2.73v-14.9c0-.82.55-1.37,1.37-1.37h6.7c.82,0,1.37.55,1.37,1.37v27.33c0,.82-.96.82-1.37,1.37Z" fill="#ffe99f"/>
  <path d="M59.05,66.33v-4.37c0-3.01-2.32-5.33-5.47-5.33s-5.47,2.32-5.47,5.33v4.37c0,.82.55,1.37,1.37,1.37h8.2c.82,0,1.37-.55,1.37-1.37ZM50.85,61.96c0-1.5,1.09-2.6,2.73-2.6,1.5,0,2.73,1.09,2.73,2.6v3.01h-5.47v-3.01s0,0,.01,0Z" fill="#ffe99f"/>
  <path d="M42.24,83.28h0c1.5-1.5,1.5-3.96,0-5.47s-3.96-1.5-5.47,0-1.5,3.96,0,5.47c.82.68,1.78,1.09,2.73,1.09s1.91-.41,2.73-1.09h.01ZM41.29,82.19h0ZM40.33,79.59c.41.55.41,1.23,0,1.64h0c-.55.41-1.23.41-1.64,0-.41-.55-.41-1.23,0-1.64.27-.14.55-.27.82-.27s.55.14.82.27Z" fill="#ffe99f"/>
  <path d="M70.4,83.28c1.5-1.5,1.5-3.96,0-5.47h0c-1.5-1.5-3.96-1.5-5.47,0s-1.5,3.96,0,5.47c.82.68,1.78,1.09,2.73,1.09s2.05-.41,2.73-1.09h0ZM68.48,79.59h0c.41.55.41,1.23,0,1.64-.55.41-1.23.41-1.64,0-.14-.27-.27-.55-.27-.82s0-.68.27-.82.55-.27.82-.27.55.14.82.27Z" fill="#ffe99f"/>
  <path d="M65.2,81.78h-23.23c-.82,0-.82-2.73,0-2.73h23.23c.82,0,.82,2.73,0,2.73Z" fill="#ffe99f"/>
  <path d="M41.01,79.45c-.27,0-.55-.14-.82-.27-.68-.41-.82-1.23-.41-1.91l8.47-12.57c.41-.68,1.23-.82,1.91-.41s.82,1.23.41,1.91l-8.47,12.57c-.27.55-.68.68-1.09.68Z" fill="#ffe99f"/>
  <path d="M66.16,79.45c-.41,0-.82-.27-1.09-.55l-8.47-12.57c-.41-.68-.27-1.5.41-1.91s1.5-.27,1.91.41l8.47,12.57c.41.68.27,1.5-.41,1.91-.27.14-.55.14-.82.14Z" fill="#ffe99f"/>
  <path d="M53.59,81.78c-.82,0-1.37-.55-1.37-1.37v-14.08c0-.82.55-1.37,1.37-1.37s1.37.55,1.37,1.37v14.08c0,.82-.55,1.37-1.37,1.37Z" fill="#ffe99f"/>
  <path d="M48.67,80.96c-.82,0-1.37-.55-1.37-1.37v-12.44c0-.82.55-1.37,1.37-1.37s1.37.55,1.37,1.37v12.44c0,.82-.68,1.37-1.37,1.37Z" fill="#ffe99f"/>
  <path d="M58.51,81.78c-.82,0-1.37-.55-1.37-1.37v-13.26c0-.82.55-1.37,1.37-1.37s1.37.55,1.37,1.37v13.26c0,.82-.55,1.37-1.37,1.37Z" fill="#ffe99f"/>
  <path d="M63.56,81.78c-.82,0-1.37-.55-1.37-1.37v-5.74c0-.82.55-1.37,1.37-1.37s1.37.55,1.37,1.37v5.74c0,.82-.68,1.37-1.37,1.37Z" fill="#ffe99f"/>
  <path d="M43.61,81.78c-.82,0-1.37-.55-1.37-1.37v-5.74c0-.82.55-1.37,1.37-1.37s1.37.55,1.37,1.37v5.74c0,.82-.55,1.37-1.37,1.37Z" fill="#ffe99f"/>
  <path d="M49.35,56.49c1.09-.68,1.64-2.87,1.5-6.29,0-1.23-.14-4.1-1.23-5.33h0c-3.14-3.28-11.89-3.01-15.72-.14-2.32,1.64-4.65,4.65-4.92,7.65-.14,1.5.27,2.87,1.37,3.96,1.5,1.5,5.06,2.19,8.75,2.19,4.1,0,8.34-.82,10.25-2.05h0ZM47.44,46.92c.27.41.55,2.05.55,3.55,0,1.64-.14,3.42-.41,3.96-2.87,1.78-13.39,2.19-15.31.14-.55-.55-.68-1.09-.68-1.91.14-1.78,1.78-4.1,3.83-5.6,1.64-1.23,4.24-1.78,6.7-1.78,2.32,0,4.51.55,5.33,1.64h0ZM47.57,54.44h0Z" fill="#ffe99f"/>
  <path d="M76.82,56.49c.96-.96,1.5-2.46,1.37-3.96-.27-3.01-2.6-6.01-4.92-7.65-3.96-2.87-12.71-3.28-15.72.14h0c-1.09,1.23-1.23,4.24-1.23,5.33,0,3.42.41,5.6,1.5,6.29,1.78,1.09,6.01,1.91,10.11,1.91,3.69,0,7.24-.68,8.88-2.05h.01ZM59.05,50.34c0-1.5.27-3.14.55-3.55,1.91-2.19,9.02-2.05,12.03.14,2.05,1.5,3.69,3.83,3.83,5.6,0,.82-.14,1.37-.68,1.91-1.91,1.91-12.44,1.5-15.31-.14-.27-.55-.41-2.32-.41-3.96h0ZM59.46,54.44h0ZM58.51,45.83h0Z" fill="#ffe99f"/>
  <path d="M68.21,78.09l6.42-11.07,2.46,1.37-6.42,11.07c-.27.41-2.73-.68-2.46-1.37Z" fill="#ffe99f"/>
  <path d="M35,25.19c3.83-4.1,9.16-6.83,15.03-7.79.68-.14,1.09,2.6.41,2.6-5.19.82-9.98,3.14-13.39,6.83,0,0-2.05-1.64-2.05-1.64Z" fill="#ffe99f"/>
  <path d="M30.76,32.03c.41-.82.68-1.64,1.23-2.46l2.46,1.37c-.41.68-.68,1.37-1.09,2.19l-2.6-1.09h0Z" fill="#ffe99f"/>
  <path d="M36.5,79.45l-6.42-11.07,2.46-1.37,6.42,11.07c.41.68-2.19,1.78-2.46,1.37Z" fill="#ffe99f"/>
  <path d="M76.69,77.4c5.47-.82,12.71-3.28,13.8-3.83.68-.41,1.91,2.05,1.23,2.32-1.37.68-8.88,3.28-14.62,4.1l-.41-2.6h0Z" fill="#ffe99f"/>
  <path d="M30.49,80.14c-6.01-.82-13.67-3.55-14.9-4.24-.68-.41.68-2.73,1.23-2.32,1.09.55,8.61,3.14,14.08,3.96l-.41,2.6Z" fill="#ffe99f"/>
  <path d="M82.56,48.7c-.55,0-.96-.27-1.23-.82-.27-.55-7.11-13.8-24.46-7.52,0,0-1.23-2.32-.55-2.6,19.68-7.11,27.33,8.88,27.47,9.02.27.68,0,1.5-.68,1.78-.14.14-.27.14-.55.14Z" fill="#ffe99f"/>
  <path d="M24.89,48.7c-.14,0-.41,0-.55-.14-.68-.27-.96-1.09-.68-1.78.14-.14,7.65-16.13,27.47-9.02.68.27-.96,2.6-.96,2.6-17.36-6.29-23.78,6.97-24.05,7.52-.27.55-.68.82-1.23.82Z" fill="#ffe99f"/>
  <path d="M53.59,89.29c-9.84,0-28.56-1.09-36.76-5.47-2.19-1.09-4.1-3.96-1.5-11.07l7.93-25.69v-4.78c0-15.44,11.62-28.43,26.92-30.2.68-.14,1.09,2.6.27,2.73-13.94,1.64-24.46,13.39-24.46,27.47v5.33l-7.93,25.97c-.96,2.46-2.05,6.56.14,7.79,7.79,3.96,25.97,5.06,35.53,5.06s27.74-1.09,35.53-5.06c2.19-1.09,1.09-5.33.14-7.65l-8.06-26.24v-5.19c0-14.08-10.52-25.97-24.46-27.47-.68-.14-.41-2.73.27-2.73,15.31,1.78,26.92,14.76,26.92,30.2v4.78l7.79,25.83c2.6,7.11.68,9.84-1.5,10.93-8.2,4.37-26.92,5.47-36.76,5.47h-.01Z" fill="#ffe99f"/>
  <polygon points="82.29 19.86 82.29 22.6 85.02 22.6 85.02 19.86 82.29 19.86" fill="#ffe99f"/>
  <polygon points="78.87 15.22 78.87 17.95 81.61 17.95 81.61 15.22 78.87 15.22" fill="#ffe99f"/>
  <polygon points="74.36 11.12 74.36 13.85 77.1 13.85 77.1 11.12 74.36 11.12" fill="#ffe99f"/>
  <polygon points="69.03 8.25 69.03 10.98 71.77 11.12 71.77 8.38 69.03 8.25" fill="#ffe99f"/>
  <path d="M17.78,91.75l-.68-.14c-3.42-.82-6.42-2.87-8.34-5.88l2.32-1.5c1.37,2.46,3.69,4.1,6.56,4.65l.68.14-.55,2.73s.01,0,.01,0Z" fill="#ffe99f"/>
  <path d="M7.12,81.5c-.27-1.5-.27-2.87-.14-4.37l2.73.27c-.14,1.09-.14,2.32.14,3.42,0,0-2.73.68-2.73.68Z" fill="#ffe99f"/>
</svg>