<?xml version="1.0" encoding="UTF-8"?>
<svg id="Vrstva_1" xmlns="http://www.w3.org/2000/svg" version="1.1" xmlns:xlink="http://www.w3.org/1999/xlink" viewBox="0 0 1040.9 661.3">
  <!-- Generator: Adobe Illustrator 29.3.1, SVG Export Plug-In . SVG Version: 2.1.0 Build 151)  -->
  <defs>
    <style>
      .st0 {
        fill: #b29f5d;
      }
    </style>
  </defs>
  <g id="Vrstva_11">
    <g>
      <path class="st0" d="M87.9,33.6l8.4,3.6,9.5,1.4c67.5,22.6,100.8,35.6,99.8,38.9l-.4,2.7c-1.6,4.2-5.1,5.5-10.6,4l-4.1-1.1-15.4-5.4-4.2-.5-35.1-12.8-7.3-2.1c-3.4-1-6.5,3.7-9.5,14.1-13.5,29.7-22,50.6-25.4,62.9l-3.2,12.9c-1.5,3-3.6,5.3-6.2,6.9l-2.2-.6c-2.3-.7-3-4.5-1.9-11.6,5-17.9,15.1-44.1,30.6-78.7l2-7c.8-2.9,0-4.6-2.4-5.3-5.7-1.3-8.6-1.7-8.7-1.3l-1.7-1.1c-3.8-1.1-9.7-1.9-17.4-2.5l-.7-.2c-2.5-.7-3.4-3.9-2.9-9.5l.4-1.6c1.7-5.4,4.6-7.4,8.7-6.2h0Z"/>
      <path class="st0" d="M149.2,89.5c3.9,1.3,4.1,7.4.6,18l-7.5,18.8-5.6,17.8-.2,2.4.9.3c.9.3,4.1-1.2,9.5-4.8,10-3.4,17.1-4.4,21.3-3,4.3,1.5,8.7,5.2,13.3,11.4,4.7,9.4,6.1,22.4,4.2,38.8l-.9,5.5c-1.9,3.5-3.8,5-5.8,4.4-2.5-.9-2.7-5.9-.6-15.2.5-6,.3-12.5-.6-19.7-2.3-8.8-5.1-13.8-8.6-15l-4.4-1.4c-4.7-1.6-12,.5-22.1,6-4.6,3.5-8,7-10.2,10.5-1.3,1.2-2.6,2-4,1.9-3-1-3.9-3.9-2.7-8.8l6.4-23.8,8.3-21.4,4.4-13.6,1.3-6.5.3-.8c.6-1.7,1.5-2.4,2.8-1.9h0Z"/>
      <path class="st0" d="M219.6,141c3.5,1.2,5,3.9,4.4,8.3l-.2.7-16.1,34.2-5.1,19.5c-1.3,1.3-2.6,1.8-4,1.3-3.5-1.2-5-3.9-4.5-8.5l.5-1.7,4.7-15.6c5.6-14,11.5-26.8,17.4-38.1,1.2-.3,2.2-.4,2.9-.1h0ZM235.7,110.5c2,.7,3.7,2.8,4.7,6.3v1.4c-.9,1.4-2.2,2.2-4,2.4l-1.8-.6c-2.5-.9-3.6-3.5-2.9-7.9,1.1-1.6,2.5-2.1,4.1-1.5h0Z"/>
      <path class="st0" d="M278.9,158.4l1.5.5c2.3.8,2.9,3,2.1,6.9-.6,1.7-3.9,2.2-9.8,1.4-10.8,0-19.5,1.3-26,3.6-2.9,1.1-4.6,2.4-5,3.7-.9,2.9,3.4,7.3,12.9,13.2,1,1.3,3.6,3.5,8.1,6.6,6.8,6.9,9.5,12.7,8,17.4-2.4,7.3-9.6,9.8-21.8,7.7-3.3-.3-8.7-1.4-16.1-3.3-14.9-4.9-21.4-10.5-19.3-16.9l.3-1,2-1.4,1,.3,3,4.2c2.3,1.6,6.1,3.2,11.2,4.9l5,1.7c10.1,3.3,18.9,3.7,26.5,1.3l.3-.3c0,0,.5-1.4.5-1.4-1.7-4.3-5-7.8-9.9-10.7l-13.5-10.3c-3.5-2.9-5.2-6.1-5.4-9.5.1-4,.5-6.8,1.1-8.6v-.4c1.6-4.3,10.2-7.6,26.1-9.8,5.3-.5,11-.4,17.4.2h0Z"/>
      <path class="st0" d="M419.6,150.3c9.9,3.2,14.2,6.5,13.1,9.9l-.2.7c-.8,2.3-7.8,1.6-21.2-2.3l-2.1,1.5-.3.3c-8.9,22.8-14,34-15,33.7l-5,12.9c-9.8,29.6-13.4,44.8-11,45.6l18.3,9.9.4,1.4-.3,1.2c-1,3.1-5.1,3.4-12.3,1l-8.7-3.8-5.6-1.4c-2-2.1-3.6-3.3-4.8-3.8l-7.6-2.5-6.5-.9-1.8-.6c-1.7-.5-3-2.7-3.9-6.4l.3-1.2c1.3-3.8,7.9-3.8,19.9.1l1.1.4c.7.2,1.3-.2,1.6-1.3l9.1-32.4,1.7-5,1.3-5.2,16.7-38.5,2-6.2c-.3-1.5-.7-2.4-1.5-2.7-3.6-1.1-10.2-2.1-19.9-2.6l-2.5-.9c-2.4-.7-3.2-3.4-2.5-8.1,1.4-4.2,12.8-3.4,34.2,2.7l13.2,4.4h0Z"/>
      <path class="st0" d="M504.7,178.8c3.8,2.6,5,6.6,3.7,12l-.4,1.1c-1.6,4.7-13.1,24.9-34.7,60.5-7.9,13.3-12.5,22.2-13.9,26.6l-1.1,9.2c-.6.9-1.5,1.4-2.5,1.5l-.3-.3c-4.3-1.3-5.3-6.8-3-16.4,3.4-10.2,12.8-28,28.5-53.7,9.5-15.7,15.3-27.1,17.7-34.1l1-4c1.7-2.1,3.4-2.9,5.1-2.3h0Z"/>
      <path class="st0" d="M502.1,234.1c3.5,1.2,5,3.9,4.4,8.3l-.2.7-16.1,34.2-5.1,19.5c-1.2,1.4-2.6,1.8-4,1.3-3.5-1.2-5-3.9-4.5-8.5l.5-1.7,4.7-15.6c5.6-14,11.5-26.8,17.4-38.1,1.1-.4,2.1-.4,2.9-.1h0ZM518.1,203.5c2,.7,3.7,2.8,4.7,6.3v1.4c-.9,1.4-2.2,2.2-4,2.4l-1.8-.6c-2.5-.9-3.6-3.5-2.9-7.9,1.2-1.5,2.5-2,4.1-1.5h0Z"/>
      <path class="st0" d="M533.1,214.4l.3.3c3.7,2.6,4.9,5.9,3.6,9.9v1.6c-9.5,18.1-14.6,28.3-15.3,30.6l-.3.3,1.1,1.8c15.1-4.4,27-6.1,35.6-5.2,7.6-.9,12.8-.7,15.5.2,2.6,1.2,3.8,3.8,3.5,7.4-.7,2-6.4,2.9-17.2,2.5-10.2,0-20.7,1.7-31.6,4.8l-1.5,2.1c-.8,2.5,1.6,8.9,7.3,19.3,8.9,13.6,16.8,22.1,24,25.7,1.7.6,2.7,2.3,3.1,5.3-.6,2-2.9,2.6-6.5,1.6-8.5-2.8-19.2-14.7-31.9-35.5-2.4-6.4-3.8-9.7-4.3-9.9l-1.5-.5c-3.8,1.8-6.5,5.1-8.1,10l-1.9,5.7c-2,5.8-4.1,8.4-6.5,7.6-4.1-2-5.6-5-4.3-9,10.8-27.9,19.2-47.5,25.3-58.6,2.1-4,4.5-9.5,6.9-16.3,1.9-1.6,3.4-2.1,4.6-1.7h0Z"/>
      <path class="st0" d="M611.4,265.3c8.6,2.8,13.8,8.3,15.6,16.6,1.2,4,1.4,7.7.8,11.1-1.6,4.9-5.8,6.2-12.5,4-6.7-.9-12.5-2.2-17.3-3.8l-14.3-5.2c-2.2-.7-3.6.2-4.5,2.9-2.6,7.8-.8,15.7,5.4,23.6,6.8,7.3,13.3,12,19.7,14.1l1.2.3c4.7,1.6,12.5,1.8,23.2.5,1,.3,1.5,1.2,1.5,2.4l-.3.8c-2.5,7.5-12.1,9.5-28.6,6.2-8.7-2.9-17.7-9.3-26.9-19.3-3.9-6.8-5.3-16.3-4.1-28.5l.9-4.9c3.9-11.8,8-18.5,12.3-19.8,10.4-3.5,19.7-3.9,27.9-1.2h0ZM593.2,276.9c-.1.9.5,1.6,1.9,2.1l14.3,5.2c4.1,1.2,6.3,1.2,6.6.3.8-2.3-1.9-5-8-7.8-4.1-1.3-9-1.5-14.7-.1v.4Z"/>
      <path class="st0" d="M766.3,292c5.7,1.8,7.5,5.9,5.4,11.9,1,4.5.8,11.1-.8,19.5.6,11.2,4.7,24.8,12.1,40.5,5.3,12.4,10.1,20.9,14.5,25.5,1.2,2.4,1.6,4.3,1.1,5.9v.4c-2.1,3.7-4.3,5.3-6.5,4.5l-1-.3c-6.4-5.5-14.7-22.3-25.3-50.4l-3.2-9.6-1.3-.5c-.4-.1-2.6,1.9-6.4,5.9-17.8,13.8-32.3,18.8-43.2,15.3-6.4-4.8-9-9.2-7.8-12.8-.2-4.5.3-9,1.7-13.2,2.8-8.3,8.6-16.5,17.5-24.6,20.5-14.8,35-20.8,43.3-18.1h0ZM713,341.5c-.7,3.5,0,5.5,2,6.2,11.5,3.8,24.8-1.6,39.8-16.4,2.3-2.7,3.9-5,4.4-6.6l.8-2.3c.9-10.2,1.1-15.8.8-17l-1.2-.3c-5.2-1.7-17.1,4.4-35.5,18.2-5.3,5.6-9.1,11.6-11.2,18.2h0Z"/>
      <path class="st0" d="M905.1,310.6c3.8,2.6,5,6.6,3.7,12l-.4,1.1c-1.6,4.7-13.1,24.9-34.7,60.5-7.9,13.3-12.5,22.2-13.9,26.6l-1.1,9.2c-.7.8-1.5,1.4-2.5,1.5l-.3-.3c-4.3-1.3-5.3-6.8-3-16.4,3.4-10.2,12.8-28,28.5-53.7,9.5-15.7,15.3-27.1,17.7-34.1l1-4c1.8-2,3.5-2.8,5.1-2.3h0Z"/>
      <path class="st0" d="M934.8,348c3.2,2.4,4.3,5.1,3.3,8.3-.7,2-3.5,4-7.9,6l-1.8,3c1.4,1.6,5.5,5,12.2,10.1,6.6,7.2,10.1,14.9,10.2,23.3l-1.7,11.1c-3,9.2-12.9,17.3-29.6,24.4-9.1,2.5-16.3,2.8-21.5,1.1l-.7-.2c-10.3-3.3-15.6-10.4-15.8-21,.2-5.4.8-9.8,2.1-13.6,4.1-12.2,10.2-22.5,18.5-30.7,3.5-5.1,6.3-7.9,8.3-8.4.5.2,7-4.4,19.6-13.4,1.7-.3,3.3-.3,4.7,0h0ZM891.3,406c-2.2,6.7-1.5,12,1.9,16l5,3.1c10.8,3.6,23.4-.8,37.8-13.1,2.4-2.5,4-4.7,4.6-6.6l1.2-3.7c1.2-3.7.5-8-2.1-13-4-6.7-11.3-11.8-22.1-15.4-3.9-1.3-10.9,5.4-21,20.1l-5.3,12.6h0Z"/>
      <path class="st0" d="M993.9,366.5c3.1,2.3,4.1,4.7,3.2,7.4l-13.2,19.4-.5,1.5c0,.9.5,1.5,1.6,1.8l14.8,4,4.2,1.4c13.6,5,20,8.8,19.1,11.4l-.3.3c-.7,2.3-2.5,3.2-5.5,2.8l-13.9-4.6c-18-5.3-27.5-6.9-28.1-4.7-5.8,8.2-10.7,18.2-14.6,29.9-4.2,11.2-8,16.2-11.4,15-1.5-.5-2.7-3.3-3.4-8.2l.3-2.9.2-.7c.3-1.2,2.1-2.4,5.2-3.7l12.3-29-.6-1.1-.3-.3c-.9-.2-3.4.7-7.7,2.6h-1.4c-2.5-2.2-3.2-4.4-2.5-6.8l.2-.7c1.4-4.2,7.7-6.5,19.1-6.7,1.6-1,6.5-8,14.4-21.2,3.8-5.3,6.7-7.7,8.7-7h0Z"/>
    </g>
  </g>
  <g id="arrows">
    <path class="st0" d="M226.7,593.3h0c-1.5-.3-1.7-1.7-1.5-3.6-1-.8-1.9-1.5-2.9-2.3-3-2.5,1.1-11.2,3.9-12.5l26.3-12.5c6.1-3.6,12.6-6.7,19.6-9.3,3.6-1.3.8,11.4-2.5,13-6.3,3-12.7,6-19,9-3.4,2.1-6.7,4.3-9.9,6.7,51.7,6.2,238-43.2,256.9-218.5,1.2-11.2,9.2-11.6,9-6.7-7,170.2-193,236.2-245.5,239,5.3,3.4,10.5,6.7,15.8,10,3.4,2.2-.5,14.5-4,13-15.3-6.7-29.2-14.8-42.4-24.7-1.3-.2-2.5-.4-3.8-.6h0Z"/>
  </g>
</svg>